<svg width="40" height="38" viewBox="0 0 40 38" fill="none" xmlns="http://www.w3.org/2000/svg">
<path d="M0 0L0.409201 10.801L20.7673 28.9664L24.757 25.137L14.9361 15.7106L14.2199 13.6486L16.3683 14.3359L26.1893 23.7623L30.179 19.9328L11.3555 0.294574L0 0ZM0.71611 33.5814L7.16113 27.3953L2.25064 22.6822C1.53452 21.9948 1.53452 20.9147 2.25064 20.2274L3.27365 19.2455C3.98977 18.5581 5.11509 18.5581 5.8312 19.2455L19.6419 32.5013C19.8465 32.6977 19.9489 32.6977 19.9489 32.6977C19.9489 32.6977 20.1535 32.6977 20.3581 32.5013L34.1688 19.2455C34.8849 18.5581 36.0102 18.5581 36.7263 19.2455L37.7494 20.2274C38.4655 20.9147 38.4655 21.9948 37.7494 22.6822L32.8389 27.3953L39.2839 33.5814C40.1023 34.3669 40.1023 35.7416 39.2839 36.5271L38.3632 37.4109C37.5448 38.1964 36.1125 38.1964 35.2941 37.4109L28.8491 31.2248L23.9386 35.938C22.0972 37.7054 17.8005 37.7054 15.9591 35.938L11.0486 31.2248L4.60358 37.4109C3.78517 38.1964 2.35294 38.1964 1.53453 37.4109L0.613801 36.5271C-0.204613 35.6434 -0.204607 34.3669 0.71611 33.5814ZM22.0972 7.06977L32.2251 17.3798L39.5908 10.801L40 0L28.7468 0.392765L22.0972 7.06977Z" fill="#E9E1D1"/>
</svg>
