<svg width="40" height="40" viewBox="0 0 40 40" fill="none" xmlns="http://www.w3.org/2000/svg">
<rect x="7" y="12" width="25" height="17" fill="black" fill-opacity="0.6"/>
<path fill-rule="evenodd" clip-rule="evenodd" d="M29.1586 6C31.5088 6 33.5418 7.63688 34.0434 9.93301L38.7702 31.5732C39.0426 32.8203 38.0928 34 36.8163 34H5.00024C3.89568 34 3.00024 33.1046 3.00024 32V8C3.00024 6.89543 3.89567 6 5.00024 6H29.1586ZM18.3376 13.3267H13.0349V27.5454H15.9646V22.2817H18.2915L20.9841 27.5454H24.1189V27.4087L21.0413 21.5742C21.4388 21.395 21.7973 21.1817 22.1169 20.9341C22.5857 20.5695 22.947 20.117 23.2009 19.5767C23.4613 19.0298 23.5916 18.3755 23.5916 17.6138C23.5916 16.6828 23.38 15.8983 22.9568 15.2603C22.5336 14.6222 21.9281 14.1405 21.1404 13.8149C20.3591 13.4894 19.4249 13.3267 18.3376 13.3267ZM15.9646 19.9966H18.3572C18.8715 19.9966 19.2979 19.9054 19.6365 19.7232C19.975 19.5409 20.2289 19.287 20.3982 18.9614C20.574 18.6359 20.6619 18.2583 20.6619 17.8286C20.6619 17.3729 20.5772 16.979 20.408 16.647C20.2387 16.3149 19.9815 16.061 19.6365 15.8853C19.2914 15.7095 18.8585 15.6216 18.3376 15.6216H15.9646V19.9966Z" fill="#E2DED3"/>
</svg>
