<svg width="40" height="40" viewBox="0 0 40 40" fill="none" xmlns="http://www.w3.org/2000/svg">
<mask id="path-1-inside-1_577_395" fill="white">
<path d="M20 15C17.2386 15 15 12.7614 15 10C15 7.23858 17.2386 5 20 5C22.7614 5 25 7.23858 25 10C25 12.7614 22.7614 15 20 15Z"/>
</mask>
<path d="M20 13C18.3431 13 17 11.6569 17 10L13 10C13 13.866 16.134 17 20 17L20 13ZM17 10C17 8.34315 18.3431 7 20 7L20 3C16.134 3 13 6.13401 13 10L17 10ZM20 7C21.6569 7 23 8.34315 23 10L27 10C27 6.13401 23.866 3 20 3L20 7ZM23 10C23 11.6569 21.6569 13 20 13L20 17C23.866 17 27 13.866 27 10L23 10Z" fill="#E2DED3" mask="url(#path-1-inside-1_577_395)"/>
<path fill-rule="evenodd" clip-rule="evenodd" d="M20 25C17.2386 25 15 27.2386 15 30C15 32.7614 17.2386 35 20 35C22.7614 35 25 32.7614 25 30C25 27.2386 22.7614 25 20 25ZM17.8318 29.4964L19.7732 31.7381C19.8929 31.8763 20.1071 31.8763 20.2268 31.7381L22.1682 29.4964C22.3364 29.3021 22.1984 29 21.9414 29L18.0586 29C17.8016 29 17.6636 29.3021 17.8318 29.4964Z" fill="#E2DED3"/>
<mask id="path-4-inside-2_577_395" fill="white">
<path d="M10 25C7.23858 25 5 22.7614 5 20C5 17.2386 7.23858 15 10 15C12.7614 15 15 17.2386 15 20C15 22.7614 12.7614 25 10 25Z"/>
</mask>
<path d="M10 23C8.34315 23 7 21.6569 7 20L3 20C3 23.866 6.13401 27 10 27L10 23ZM7 20C7 18.3431 8.34315 17 10 17L10 13C6.13401 13 3 16.134 3 20L7 20ZM10 17C11.6569 17 13 18.3431 13 20L17 20C17 16.134 13.866 13 10 13L10 17ZM13 20C13 21.6569 11.6569 23 10 23L10 27C13.866 27 17 23.866 17 20L13 20Z" fill="#E2DED3" mask="url(#path-4-inside-2_577_395)"/>
<mask id="path-6-inside-3_577_395" fill="white">
<path d="M30 25C27.2386 25 25 22.7614 25 20C25 17.2386 27.2386 15 30 15C32.7614 15 35 17.2386 35 20C35 22.7614 32.7614 25 30 25Z"/>
</mask>
<path d="M30 23C28.3431 23 27 21.6569 27 20L23 20C23 23.866 26.134 27 30 27L30 23ZM27 20C27 18.3431 28.3431 17 30 17L30 13C26.134 13 23 16.134 23 20L27 20ZM30 17C31.6569 17 33 18.3431 33 20L37 20C37 16.134 33.866 13 30 13L30 17ZM33 20C33 21.6569 31.6569 23 30 23L30 27C33.866 27 37 23.866 37 20L33 20Z" fill="#E2DED3" mask="url(#path-6-inside-3_577_395)"/>
</svg>
